<svg width="136" height="52" fill="none" xmlns="http://www.w3.org/2000/svg"><path d="M26 51 9 31v20H0V6h9v20L26 6h10L18 28l19 23H26Zm62-40-4-1-1-4 1-4 4-1 4 1 2 4-2 4-4 1Zm5 5v35h-9V16h9Zm28-1c4 0 8 1 10 4 3 3 4 6 4 11v21h-9V31c0-2 0-5-2-6-1-2-3-2-6-2-2 0-4 0-5 2-2 1-3 4-3 6v20h-9V16h9v4l5-4 6-1Z" fill="#fff"/><path d="M59 52c-4 0-7-1-10-3-2-1-5-3-6-6-2-3-2-6-2-10 0-3 0-7 2-9l7-7 9-2 9 2 7 7 2 9-2 10c-2 3-4 5-7 6l-9 3Zm0-8 4-1 4-4 1-6c0-3-1-6-3-7l-6-3c-3 0-5 1-7 3l-2 7 2 8c2 2 4 3 7 3Z" fill="#BC8AFC"/></svg>