<svg xmlns="http://www.w3.org/2000/svg" width="96" height="96" fill="none"><g filter="url(#a)"><circle cx="48" cy="46" r="40" fill="#190422"/></g><path d="M47 21v5a1 1 0 1 0 1 0v-4l-1-1Zm-14 6v1l3 3v-1l-3-3Zm29 0h-1l-2 3v1l3-3v-1Zm-15 2c-6 0-12 5-12 13 0 4 1 7 3 9 2 3 3 4 3 7v6c0 2 2 3 3 3h7c1 0 3-1 3-3v-6c0-3 1-4 3-7 1-2 3-5 3-9 0-8-6-13-13-13Zm0 1c6 0 12 5 12 12 0 4-1 6-3 9-2 2-3 4-3 7H42c0-3-1-5-3-7-2-3-3-5-3-9 0-7 6-12 11-12Zm-1 3a9 9 0 0 0-7 12h1a8 8 0 0 1 6-11h1l-1-1Zm-19 9a1 1 0 1 0 0 1h4a1 1 0 1 0 0-1h-4Zm37 0a1 1 0 1 0 0 1h4a1 1 0 1 0 0-1h-4ZM42 59h11v3H42v-3Zm0 4h11v1l-2 2h-7l-2-2v-1Z" fill="#D9BBFF" stroke="#D9BBFF" stroke-width="1.4"/><defs><filter id="a" x="0" y="0" width="96" height="96" filterUnits="userSpaceOnUse" color-interpolation-filters="sRGB"><feFlood flood-opacity="0" result="BackgroundImageFix"/><feColorMatrix in="SourceAlpha" values="0 0 0 0 0 0 0 0 0 0 0 0 0 0 0 0 0 0 127 0" result="hardAlpha"/><feOffset dy="2"/><feGaussianBlur stdDeviation="4"/><feComposite in2="hardAlpha" operator="out"/><feColorMatrix values="0 0 0 0 0.370833 0 0 0 0 0.128247 0 0 0 0 0.300177 0 0 0 0.2 0"/><feBlend in2="BackgroundImageFix" result="effect1_dropShadow_1_68"/><feBlend in="SourceGraphic" in2="effect1_dropShadow_1_68" result="shape"/></filter></defs></svg>