<svg xmlns="http://www.w3.org/2000/svg" width="96" height="96" fill="none"><g filter="url(#a)"><circle cx="48" cy="46" r="40" fill="#190422"/></g><path d="M66 33H30a2 2 0 0 0-2 2v21a2 2 0 0 0 2 2h36a2 2 0 0 0 2-2V35a2 2 0 0 0-2-2Zm-37 7h38v5H29v-5Zm1-6h36a1 1 0 0 1 1 1v4H29v-4a1 1 0 0 1 1-1Zm36 23H30a1 1 0 0 1-1-1V46h38v10a1 1 0 0 1-1 1Z" fill="#D9BBFF" stroke="#D9BBFF" stroke-width="1.5"/><path d="M61 49h-5a1 1 0 0 0-1 1v3a1 1 0 0 0 1 1h5a1 1 0 0 0 2-1v-3a1 1 0 0 0-2-1Zm1 4h-6v-3h6v3Z" fill="#D9BBFF" stroke="#D9BBFF" stroke-width="1.5"/><defs><filter id="a" x="0" y="0" width="96" height="96" filterUnits="userSpaceOnUse" color-interpolation-filters="sRGB"><feFlood flood-opacity="0" result="BackgroundImageFix"/><feColorMatrix in="SourceAlpha" values="0 0 0 0 0 0 0 0 0 0 0 0 0 0 0 0 0 0 127 0" result="hardAlpha"/><feOffset dy="2"/><feGaussianBlur stdDeviation="4"/><feComposite in2="hardAlpha" operator="out"/><feColorMatrix values="0 0 0 0 0.370833 0 0 0 0 0.128247 0 0 0 0 0.300177 0 0 0 0.2 0"/><feBlend in2="BackgroundImageFix" result="effect1_dropShadow_1_75"/><feBlend in="SourceGraphic" in2="effect1_dropShadow_1_75" result="shape"/></filter></defs></svg>